<mxfile host="app.diagrams.net" modified="2020-10-19T21:59:38.138Z" agent="5.0 (Windows NT 10.0; Win64; x64) AppleWebKit/537.36 (KHTML, like Gecko) Chrome/86.0.4240.75 Safari/537.36" etag="Z27mm-gqXwpcAb6Ovxpl" version="13.8.0" type="github">
  <diagram name="Page-1" id="74e2e168-ea6b-b213-b513-2b3c1d86103e">
    <mxGraphModel dx="3162" dy="1122" grid="1" gridSize="10" guides="1" tooltips="1" connect="1" arrows="1" fold="1" page="1" pageScale="1" pageWidth="1100" pageHeight="850" background="#ffffff" math="0" shadow="0">
      <root>
        <mxCell id="0" />
        <mxCell id="1" parent="0" />
        <mxCell id="77e6c97f196da883-1" value="Workflow: Metadata Creation" style="swimlane;html=1;childLayout=stackLayout;startSize=70;rounded=0;shadow=0;labelBackgroundColor=none;strokeWidth=1;fontFamily=Helvetica;fontSize=20;align=center;fillColor=#E6E6E6;" parent="1" vertex="1">
          <mxGeometry x="-1040" y="40" width="1250" height="520" as="geometry" />
        </mxCell>
        <mxCell id="77e6c97f196da883-2" value="" style="swimlane;html=1;startSize=0;whiteSpace=wrap;" parent="77e6c97f196da883-1" vertex="1">
          <mxGeometry y="70" width="1250" height="450" as="geometry" />
        </mxCell>
        <mxCell id="BV2q5p9ctBvcztRm7qWQ-21" style="edgeStyle=orthogonalEdgeStyle;rounded=0;orthogonalLoop=1;jettySize=auto;html=1;exitX=0.5;exitY=1;exitDx=0;exitDy=0;fontFamily=Helvetica;fontSize=13;fontStyle=1" parent="77e6c97f196da883-2" edge="1">
          <mxGeometry relative="1" as="geometry">
            <mxPoint x="2435" y="659.1399999999999" as="sourcePoint" />
            <mxPoint x="2435" y="659.1399999999999" as="targetPoint" />
          </mxGeometry>
        </mxCell>
        <mxCell id="BV2q5p9ctBvcztRm7qWQ-54" style="edgeStyle=orthogonalEdgeStyle;rounded=0;orthogonalLoop=1;jettySize=auto;html=1;exitX=1;exitY=0.5;exitDx=0;exitDy=0;entryX=0;entryY=0.5;entryDx=0;entryDy=0;strokeColor=#000000;strokeWidth=1;fontFamily=Helvetica;fontSize=12;" parent="77e6c97f196da883-2" source="yuCJJcEnIpWc-Spo3y3i-15" target="yuCJJcEnIpWc-Spo3y3i-16" edge="1">
          <mxGeometry relative="1" as="geometry">
            <mxPoint x="659.57" y="80" as="sourcePoint" />
          </mxGeometry>
        </mxCell>
        <mxCell id="BV2q5p9ctBvcztRm7qWQ-56" style="edgeStyle=orthogonalEdgeStyle;rounded=0;orthogonalLoop=1;jettySize=auto;html=1;exitX=0.5;exitY=1;exitDx=0;exitDy=0;strokeWidth=3;fontFamily=Helvetica;fontSize=12;strokeColor=#FF0000;" parent="77e6c97f196da883-2" source="yuCJJcEnIpWc-Spo3y3i-16" target="yuCJJcEnIpWc-Spo3y3i-18" edge="1">
          <mxGeometry relative="1" as="geometry">
            <Array as="points" />
            <mxPoint x="819.57" y="420" as="targetPoint" />
          </mxGeometry>
        </mxCell>
        <mxCell id="BV2q5p9ctBvcztRm7qWQ-60" value="&lt;b&gt;&lt;font style=&quot;font-size: 14px&quot;&gt;The metadata record &lt;br&gt;requires changes: DataBC &lt;br&gt;provides feedback and sets&amp;nbsp;&amp;nbsp;&lt;br&gt;back to DRAFT status&lt;/font&gt;&lt;/b&gt;" style="edgeLabel;html=1;align=center;verticalAlign=middle;resizable=0;points=[];fontSize=12;fontFamily=Helvetica;" parent="BV2q5p9ctBvcztRm7qWQ-56" vertex="1" connectable="0">
          <mxGeometry x="-0.3215" y="-2" relative="1" as="geometry">
            <mxPoint x="2" y="27" as="offset" />
          </mxGeometry>
        </mxCell>
        <mxCell id="BV2q5p9ctBvcztRm7qWQ-67" value="" style="edgeStyle=orthogonalEdgeStyle;rounded=0;orthogonalLoop=1;jettySize=auto;html=1;exitX=1;exitY=0.5;exitDx=0;exitDy=0;entryX=0;entryY=0.5;entryDx=0;entryDy=0;strokeWidth=3;fontFamily=Helvetica;fontSize=14;strokeColor=#009900;" parent="77e6c97f196da883-2" source="yuCJJcEnIpWc-Spo3y3i-17" target="yuCJJcEnIpWc-Spo3y3i-24" edge="1">
          <mxGeometry relative="1" as="geometry">
            <Array as="points" />
          </mxGeometry>
        </mxCell>
        <mxCell id="yuCJJcEnIpWc-Spo3y3i-22" value="" style="curved=1;endArrow=classic;html=1;fontColor=#4D4D4D;entryX=0;entryY=0.5;entryDx=0;entryDy=0;" parent="77e6c97f196da883-2" target="yuCJJcEnIpWc-Spo3y3i-15" edge="1">
          <mxGeometry width="50" height="50" relative="1" as="geometry">
            <mxPoint x="324.57" y="195" as="sourcePoint" />
            <mxPoint x="374.57" y="145" as="targetPoint" />
            <Array as="points">
              <mxPoint x="374.57" y="195" />
              <mxPoint x="324.57" y="145" />
            </Array>
          </mxGeometry>
        </mxCell>
        <mxCell id="yuCJJcEnIpWc-Spo3y3i-28" value="" style="curved=1;endArrow=classic;html=1;fontColor=#4D4D4D;exitX=0;exitY=0.5;exitDx=0;exitDy=0;entryX=0;entryY=0.5;entryDx=0;entryDy=0;" parent="77e6c97f196da883-2" source="yuCJJcEnIpWc-Spo3y3i-18" target="yuCJJcEnIpWc-Spo3y3i-15" edge="1">
          <mxGeometry width="50" height="50" relative="1" as="geometry">
            <mxPoint x="559.57" y="310" as="sourcePoint" />
            <mxPoint x="609.57" y="260" as="targetPoint" />
            <Array as="points">
              <mxPoint x="609.57" y="310" />
              <mxPoint x="359.57" y="180" />
            </Array>
          </mxGeometry>
        </mxCell>
        <mxCell id="yuCJJcEnIpWc-Spo3y3i-26" value="&lt;b&gt;The metadata record &lt;br&gt;is complete&lt;/b&gt;" style="edgeStyle=orthogonalEdgeStyle;rounded=0;orthogonalLoop=1;jettySize=auto;html=1;exitX=1;exitY=0.5;exitDx=0;exitDy=0;entryX=0;entryY=0.5;entryDx=0;entryDy=0;strokeWidth=3;fontFamily=Helvetica;fontSize=14;strokeColor=#009900;" parent="77e6c97f196da883-2" source="yuCJJcEnIpWc-Spo3y3i-16" target="yuCJJcEnIpWc-Spo3y3i-17" edge="1">
          <mxGeometry relative="1" as="geometry">
            <mxPoint x="-255.43" y="205" as="sourcePoint" />
            <mxPoint x="289.57" y="249" as="targetPoint" />
          </mxGeometry>
        </mxCell>
        <mxCell id="yuCJJcEnIpWc-Spo3y3i-11" value="" style="curved=1;endArrow=classic;html=1;fontColor=#4D4D4D;entryX=0;entryY=0.5;entryDx=0;entryDy=0;exitX=1;exitY=0;exitDx=0;exitDy=0;exitPerimeter=0;" parent="77e6c97f196da883-2" source="yuCJJcEnIpWc-Spo3y3i-1" target="yuCJJcEnIpWc-Spo3y3i-14" edge="1">
          <mxGeometry width="50" height="50" relative="1" as="geometry">
            <mxPoint x="100.00000000000006" y="158.22000000000003" as="sourcePoint" />
            <mxPoint x="150.00000000000006" y="108.22" as="targetPoint" />
            <Array as="points">
              <mxPoint x="150.00000000000006" y="158.22000000000003" />
              <mxPoint x="119.57" y="200" />
              <mxPoint x="100.00000000000006" y="108.22" />
            </Array>
          </mxGeometry>
        </mxCell>
        <mxCell id="yuCJJcEnIpWc-Spo3y3i-1" value="" style="aspect=fixed;html=1;points=[];align=center;image;fontSize=12;image=img/lib/mscae/Quick_Start_Center.svg;" parent="77e6c97f196da883-2" vertex="1">
          <mxGeometry x="20" y="158" width="75" height="75" as="geometry" />
        </mxCell>
        <mxCell id="yuCJJcEnIpWc-Spo3y3i-35" value="" style="group" parent="77e6c97f196da883-2" vertex="1" connectable="0">
          <mxGeometry x="954.57" y="62" width="160" height="96" as="geometry" />
        </mxCell>
        <mxCell id="yuCJJcEnIpWc-Spo3y3i-17" value="" style="shape=image;html=1;verticalAlign=top;verticalLabelPosition=bottom;labelBackgroundColor=#ffffff;imageAspect=0;aspect=fixed;image=https://cdn0.iconfinder.com/data/icons/customicondesignoffice5/128/catalog.png;fillColor=#00994D;fontColor=#4D4D4D;imageBorder=#000000;imageBackground=#00CC00;perimeterSpacing=0;" parent="yuCJJcEnIpWc-Spo3y3i-35" vertex="1">
          <mxGeometry x="45" width="70" height="70" as="geometry" />
        </mxCell>
        <mxCell id="yuCJJcEnIpWc-Spo3y3i-25" value="&#xa;&#xa;&lt;span style=&quot;color: rgb(0, 0, 0); font-family: helvetica; font-size: 12px; font-style: normal; font-weight: 400; letter-spacing: normal; text-align: center; text-indent: 0px; text-transform: none; word-spacing: 0px; background-color: rgb(248, 249, 250); display: inline; float: none;&quot;&gt;DataBC sets the metadata record status to &#39;Published&#39;&lt;/span&gt;&#xa;&#xa;" style="text;html=1;strokeColor=none;fillColor=none;align=center;verticalAlign=middle;whiteSpace=wrap;rounded=0;fontColor=#4D4D4D;" parent="yuCJJcEnIpWc-Spo3y3i-35" vertex="1">
          <mxGeometry y="76" width="160" height="20" as="geometry" />
        </mxCell>
        <mxCell id="yuCJJcEnIpWc-Spo3y3i-34" value="" style="group" parent="77e6c97f196da883-2" vertex="1" connectable="0">
          <mxGeometry x="644.57" y="317" width="200" height="97" as="geometry" />
        </mxCell>
        <mxCell id="yuCJJcEnIpWc-Spo3y3i-18" value="" style="shape=image;html=1;verticalAlign=top;verticalLabelPosition=bottom;labelBackgroundColor=#ffffff;imageAspect=0;aspect=fixed;image=https://cdn0.iconfinder.com/data/icons/customicondesignoffice5/128/catalog.png;fillColor=#00994D;fontColor=#4D4D4D;imageBorder=#000000;perimeterSpacing=0;imageBackground=#F51D05;" parent="yuCJJcEnIpWc-Spo3y3i-34" vertex="1">
          <mxGeometry x="70" width="70" height="70" as="geometry" />
        </mxCell>
        <mxCell id="yuCJJcEnIpWc-Spo3y3i-27" value="&#xa;&#xa;&lt;span style=&quot;color: rgb(0, 0, 0); font-family: helvetica; font-size: 12px; font-style: normal; font-weight: 400; letter-spacing: normal; text-align: center; text-indent: 0px; text-transform: none; word-spacing: 0px; background-color: rgb(248, 249, 250); display: inline; float: none;&quot;&gt;Editor makes changes as per DataBC&#39;s feedback&lt;/span&gt;&#xa;&#xa;" style="text;html=1;strokeColor=none;fillColor=none;align=center;verticalAlign=middle;whiteSpace=wrap;rounded=0;fontColor=#4D4D4D;" parent="yuCJJcEnIpWc-Spo3y3i-34" vertex="1">
          <mxGeometry y="77" width="200" height="20" as="geometry" />
        </mxCell>
        <mxCell id="yuCJJcEnIpWc-Spo3y3i-33" value="" style="group" parent="77e6c97f196da883-2" vertex="1" connectable="0">
          <mxGeometry x="654.57" y="30" width="190" height="100" as="geometry" />
        </mxCell>
        <mxCell id="yuCJJcEnIpWc-Spo3y3i-16" value="" style="shape=image;html=1;verticalAlign=top;verticalLabelPosition=bottom;labelBackgroundColor=#ffffff;imageAspect=0;aspect=fixed;image=https://cdn0.iconfinder.com/data/icons/customicondesignoffice5/128/catalog.png;fillColor=#00994D;fontColor=#4D4D4D;imageBorder=#000000;imageBackground=#7EA6E0;" parent="yuCJJcEnIpWc-Spo3y3i-33" vertex="1">
          <mxGeometry x="60" y="30" width="70" height="70" as="geometry" />
        </mxCell>
        <mxCell id="yuCJJcEnIpWc-Spo3y3i-23" value="&lt;span style=&quot;color: rgb(0 , 0 , 0)&quot;&gt;DataBC to review metadata record for content and completeness&lt;/span&gt;" style="text;html=1;strokeColor=none;fillColor=none;align=center;verticalAlign=middle;whiteSpace=wrap;rounded=0;fontColor=#4D4D4D;" parent="yuCJJcEnIpWc-Spo3y3i-33" vertex="1">
          <mxGeometry width="190" height="20" as="geometry" />
        </mxCell>
        <mxCell id="yuCJJcEnIpWc-Spo3y3i-32" value="" style="group" parent="77e6c97f196da883-2" vertex="1" connectable="0">
          <mxGeometry x="439.57" y="60" width="170" height="110" as="geometry" />
        </mxCell>
        <mxCell id="yuCJJcEnIpWc-Spo3y3i-15" value="" style="shape=image;html=1;verticalAlign=top;verticalLabelPosition=bottom;labelBackgroundColor=#ffffff;imageAspect=0;aspect=fixed;image=https://cdn0.iconfinder.com/data/icons/customicondesignoffice5/128/catalog.png;fillColor=#00994D;fontColor=#4D4D4D;imageBorder=#000000;imageBackground=#FF9933;" parent="yuCJJcEnIpWc-Spo3y3i-32" vertex="1">
          <mxGeometry x="50" width="70" height="70" as="geometry" />
        </mxCell>
        <mxCell id="yuCJJcEnIpWc-Spo3y3i-21" value="&lt;span style=&quot;color: rgb(0 , 0 , 0)&quot;&gt;Editor sets the record to &#39;Pending Publish&#39; status when complete&lt;/span&gt;" style="text;html=1;strokeColor=none;fillColor=none;align=center;verticalAlign=middle;whiteSpace=wrap;rounded=0;fontColor=#4D4D4D;" parent="yuCJJcEnIpWc-Spo3y3i-32" vertex="1">
          <mxGeometry y="90" width="170" height="20" as="geometry" />
        </mxCell>
        <mxCell id="yuCJJcEnIpWc-Spo3y3i-30" value="" style="group" parent="77e6c97f196da883-2" vertex="1" connectable="0">
          <mxGeometry x="159.57" y="155" width="260" height="110.43" as="geometry" />
        </mxCell>
        <mxCell id="yuCJJcEnIpWc-Spo3y3i-14" value="" style="shape=image;html=1;verticalAlign=top;verticalLabelPosition=bottom;labelBackgroundColor=#ffffff;imageAspect=0;aspect=fixed;image=https://cdn0.iconfinder.com/data/icons/customicondesignoffice5/128/catalog.png;fillColor=#00994D;fontColor=#4D4D4D;imageBackground=#FFFF66;imageBorder=#000000;" parent="yuCJJcEnIpWc-Spo3y3i-30" vertex="1">
          <mxGeometry x="95" width="70" height="70" as="geometry" />
        </mxCell>
        <mxCell id="yuCJJcEnIpWc-Spo3y3i-6" value="&#xa;&#xa;&lt;span style=&quot;font-family: helvetica; font-size: 12px; font-style: normal; font-weight: 400; letter-spacing: normal; text-align: center; text-indent: 0px; text-transform: none; word-spacing: 0px; background-color: rgb(248, 249, 250); display: inline; float: none;&quot;&gt;Editor creates a new metadata record&lt;/span&gt;&lt;br style=&quot;font-family: helvetica; font-size: 12px; font-style: normal; font-weight: 400; letter-spacing: normal; text-align: center; text-indent: 0px; text-transform: none; word-spacing: 0px; background-color: rgb(248, 249, 250); padding: 0px; margin: 0px;&quot;&gt;&lt;a href=&quot;https://bcgov.github.io/data-publication/pages/data_publication_workflows_bcdc.html&quot; style=&quot;font-family: helvetica; font-size: 12px; font-style: normal; font-weight: 400; letter-spacing: normal; text-align: center; text-indent: 0px; text-transform: none; word-spacing: 0px; background-color: rgb(248, 249, 250);&quot;&gt;Data Publication Workflows - BCDC&lt;/a&gt;&#xa;&#xa;" style="text;html=1;strokeColor=none;fillColor=none;align=center;verticalAlign=middle;whiteSpace=wrap;rounded=0;fontColor=#4D4D4D;" parent="yuCJJcEnIpWc-Spo3y3i-30" vertex="1">
          <mxGeometry y="90.43" width="260" height="20" as="geometry" />
        </mxCell>
        <mxCell id="yuCJJcEnIpWc-Spo3y3i-24" value="" style="shape=image;html=1;verticalAlign=top;verticalLabelPosition=bottom;labelBackgroundColor=#ffffff;imageAspect=0;aspect=fixed;image=https://cdn2.iconfinder.com/data/icons/greenline/512/check-128.png;fillColor=#00994D;fontColor=#4D4D4D;" parent="77e6c97f196da883-2" vertex="1">
          <mxGeometry x="1150" y="58" width="78" height="78" as="geometry" />
        </mxCell>
      </root>
    </mxGraphModel>
  </diagram>
</mxfile>
